<?xml version="1.0" encoding="UTF-8" standalone="no"?>
<!-- Created with Inkscape (http://www.inkscape.org/) -->

<svg
   xmlns:dc="http://purl.org/dc/elements/1.1/"
   xmlns:cc="http://creativecommons.org/ns#"
   xmlns:rdf="http://www.w3.org/1999/02/22-rdf-syntax-ns#"
   xmlns:svg="http://www.w3.org/2000/svg"
   xmlns="http://www.w3.org/2000/svg"
   xmlns:sodipodi="http://sodipodi.sourceforge.net/DTD/sodipodi-0.dtd"
   xmlns:inkscape="http://www.inkscape.org/namespaces/inkscape"
   version="1.1"
   id="svg2"
   xml:space="preserve"
   width="273.86472"
   height="121.35384"
   viewBox="0 0 273.86471 121.35384"
   sodipodi:docname="usb.svg"
   inkscape:version="0.92.5 (2060ec1f9f, 2020-04-08)"><metadata
     id="metadata8"><rdf:RDF><cc:Work
         rdf:about=""><dc:format>image/svg+xml</dc:format><dc:type
           rdf:resource="http://purl.org/dc/dcmitype/StillImage" /><dc:title></dc:title></cc:Work></rdf:RDF></metadata><defs
     id="defs6"><clipPath
       clipPathUnits="userSpaceOnUse"
       id="clipPath20"><path
         d="M 0,0 H 8010 V 8091 H 0 Z"
         id="path18"
         inkscape:connector-curvature="0" /></clipPath><clipPath
       clipPathUnits="userSpaceOnUse"
       id="clipPath26"><path
         d="M 8010.22,0 H 0 V 8020.95 H 8010.22 V 0 M 2519.71,2232.47 c 2.73,-28.33 20.63,-50.21 42.31,-50.21 h 256.04 c 21.67,0 39.58,21.88 42.31,50.21 h 658.14 c 95,0.06 174.14,0.12 229.54,0.17 106.97,7.23 168.11,11.34 168.11,11.34 l 0.48,0.15 c 0,0 6.05,1.93 18.14,5.8 11.95,4.54 30.09,11.1 52.41,24.34 22.44,12.81 48.85,32.72 74.97,61.86 25.54,29.35 50.37,69.02 64.18,118 v 0 c 2.93,43.19 5.84,86.23 8.73,129.14 0.72,10.71 1.45,21.41 2.19,32.12 0.17,2.67 0.35,5.34 0.54,8.03 0.18,2.71 0.04,3.14 0.08,4.79 0,2.76 0,5.52 0,8.28 0,10.98 0,21.94 0,32.93 0,43.83 0,87.33 0,130.46 0,86.29 0,171.17 0,254.66 0,167 0,328.43 0,484.29 0,311.72 0,601.21 0,868.38 0,534.39 0,979.71 0,1335.97 0,356.24 0,623.44 0,801.57 0,44.54 0,83.49 0,116.9 0,16.69 0,32 0,45.92 0,3.48 0,6.87 0,10.18 -0.04,3.44 0.15,5.47 -0.45,12.84 -0.82,12.15 -1.59,23.65 -2.32,34.44 -5.84,86.46 -8.77,129.67 -8.77,129.67 l -0.14,0.46 c 0,0 -1.45,4.55 -3.98,12.48 -1.18,3.99 -2.89,8.77 -5.07,14.2 -2.06,5.47 -4.41,11.64 -7.7,18.1 -5.81,13.22 -14.48,27.89 -24.32,43.25 -10.51,14.92 -22.9,30.06 -36.5,44.11 -14.07,13.59 -29.24,25.95 -44.15,36.49 -15.37,9.77 -30.04,18.47 -43.27,24.25 -6.47,3.29 -12.64,5.59 -18.11,7.66 -5.42,2.2 -10.21,3.9 -14.19,5.07 -7.95,2.53 -12.47,3.98 -12.47,3.98 l -0.53,0.09 c 0,0 -10.05,0.68 -29.13,1.96 v 70.5 0 c 0,43.88 -18.51,83.43 -48.15,111.26 -2.47,23.72 -14.93,41.74 -29.93,41.74 h -305.64 v 25.14 H 3256.43 V 7330.3 H 1609.71 c -12.26,0 -22.82,-12.01 -27.63,-29.33 -38.28,-27.72 -63.17,-72.78 -63.17,-123.67 v -370.63 c -0.12,-1.77 -0.24,-3.57 -0.37,-5.4 -1.04,-15.21 -2.2,-32.17 -3.46,-50.85 -0.56,-8.89 -1.15,-18.18 -1.77,-27.88 0,-5.26 0,-10.72 0,-16.39 0,-22.7 0,-48.79 0,-78.02 0,-116.89 0,-283.87 0,-484.26 0,-400.79 0,-935.15 0,-1469.53 0,-534.37 0,-1068.72 0,-1469.51 0,-200.38 0,-367.38 0,-484.27 0,-29.23 0,-55.31 0,-78.01 0,-5.66 0,-11.15 0,-16.39 0.62,-9.73 1.22,-19.08 1.8,-28.02 1.26,-18.65 2.41,-35.63 3.43,-50.82 4.12,-60.78 6.3,-93.19 6.3,-93.19 l 0.16,-0.47 c 0,0 1.44,-4.53 3.98,-12.48 1.16,-4.01 2.89,-8.76 5.07,-14.18 2.06,-5.5 4.4,-11.66 7.67,-18.15 5.83,-13.2 14.49,-27.85 24.31,-43.22 10.54,-14.91 22.94,-30.05 36.54,-44.11 14.03,-13.6 29.22,-25.96 44.13,-36.49 15.38,-9.78 30.05,-18.48 43.26,-24.27 6.47,-3.27 12.65,-5.57 18.13,-7.64 5.44,-2.2 10.23,-3.91 14.2,-5.06 7.94,-2.52 12.47,-3.99 12.47,-3.99 l 0.49,-0.09 c 0,0 61.14,-4.14 168.13,-11.37 55.38,-0.02 134.49,-0.08 229.43,-0.14 h 386.9"
         id="path24"
         inkscape:connector-curvature="0" /></clipPath><radialGradient
       fx="0"
       fy="0"
       cx="0"
       cy="0"
       r="1"
       gradientUnits="userSpaceOnUse"
       gradientTransform="matrix(5927.21,0,0,-5935.14,4005.11,4010.48)"
       spreadMethod="pad"
       id="radialGradient34"><stop
         style="stop-opacity:1;stop-color:#ffffff"
         offset="0"
         id="stop28" /><stop
         style="stop-opacity:1;stop-color:#ffffff"
         offset="0.34764"
         id="stop30" /><stop
         style="stop-opacity:1;stop-color:#8e9495"
         offset="1"
         id="stop32" /></radialGradient><clipPath
       clipPathUnits="userSpaceOnUse"
       id="clipPath106"><path
         d="m 3518.51,2232.47 h -658.14 c 0.24,2.47 0.36,4.99 0.36,7.54 v 138.35 h 0.12 v 88.96 h 947.85 c 15.23,0 27.86,18.61 30.04,42.9 29.57,27.82 48.04,67.3 48.04,111.1 v 449.14 3966.94 69.4 c 19.08,-1.28 29.13,-1.96 29.13,-1.96 l 0.53,-0.09 c 0,0 4.52,-1.45 12.47,-3.98 3.98,-1.17 8.77,-2.87 14.19,-5.07 5.47,-2.07 11.64,-4.37 18.11,-7.66 13.23,-5.78 27.9,-14.48 43.27,-24.25 14.91,-10.54 30.08,-22.9 44.15,-36.49 13.6,-14.05 25.99,-29.19 36.5,-44.11 9.84,-15.36 18.51,-30.03 24.32,-43.25 3.29,-6.46 5.64,-12.63 7.7,-18.1 2.18,-5.43 3.89,-10.21 5.07,-14.2 2.53,-7.93 3.98,-12.48 3.98,-12.48 l 0.14,-0.46 c 0,0 2.93,-43.21 8.77,-129.67 0.73,-10.79 1.5,-22.29 2.32,-34.44 0.6,-7.37 0.41,-9.4 0.45,-12.84 0,-3.31 0,-6.7 0,-10.18 0,-13.92 0,-29.23 0,-45.92 0,-33.41 0,-72.36 0,-116.9 0,-178.13 0,-445.33 0,-801.57 0,-356.26 0,-801.58 0,-1335.97 0,-267.17 0,-556.66 0,-868.38 0,-155.86 0,-317.29 0,-484.29 0,-83.49 0,-168.37 0,-254.66 0,-43.13 0,-86.63 0,-130.46 0,-10.99 0,-21.95 0,-32.93 0,-2.76 0,-5.52 0,-8.28 -0.04,-1.65 0.1,-2.08 -0.08,-4.79 -0.19,-2.69 -0.37,-5.36 -0.54,-8.03 -0.74,-10.71 -1.47,-21.41 -2.19,-32.12 -2.89,-42.91 -5.8,-85.95 -8.73,-129.14 v 0 c -13.81,-48.98 -38.64,-88.65 -64.18,-118 -26.12,-29.14 -52.53,-49.05 -74.97,-61.86 -22.32,-13.24 -40.46,-19.8 -52.41,-24.34 -12.09,-3.87 -18.14,-5.8 -18.14,-5.8 l -0.48,-0.15 c 0,0 -61.14,-4.11 -168.11,-11.34 -55.4,-0.05 -134.54,-0.11 -229.54,-0.17 m -998.8,0 h -386.9 c -94.94,0.06 -174.05,0.12 -229.43,0.14 -106.99,7.23 -168.13,11.37 -168.13,11.37 l -0.49,0.09 c 0,0 -4.53,1.47 -12.47,3.99 -3.97,1.15 -8.76,2.86 -14.2,5.06 -5.48,2.07 -11.66,4.37 -18.13,7.64 -13.21,5.79 -27.88,14.49 -43.26,24.27 -14.91,10.53 -30.1,22.89 -44.13,36.49 -13.6,14.06 -26,29.2 -36.54,44.11 -9.82,15.37 -18.48,30.02 -24.31,43.22 -3.27,6.49 -5.61,12.65 -7.67,18.15 -2.18,5.42 -3.91,10.17 -5.07,14.18 -2.54,7.95 -3.98,12.48 -3.98,12.48 l -0.16,0.47 c 0,0 -2.18,32.41 -6.3,93.19 -1.02,15.19 -2.17,32.17 -3.43,50.82 -0.58,8.94 -1.18,18.29 -1.8,28.02 0,5.24 0,10.73 0,16.39 0,22.7 0,48.78 0,78.01 0,116.89 0,283.89 0,484.27 0,400.79 0,935.14 0,1469.51 0,534.38 0,1068.74 0,1469.53 0,200.39 0,367.37 0,484.26 0,29.23 0,55.32 0,78.02 0,5.67 0,11.13 0,16.39 0.62,9.7 1.21,18.99 1.77,27.88 1.26,18.68 2.42,35.64 3.46,50.85 0.13,1.83 0.25,3.63 0.37,5.4 v -4185.35 0 c 0,-50.7 24.74,-95.62 62.82,-123.35 4.63,-18.03 15.41,-30.65 27.98,-30.65 h 909.64 v -227.31 c 0,-2.55 0.12,-5.07 0.36,-7.54"
         id="path104"
         inkscape:connector-curvature="0" /></clipPath><clipPath
       clipPathUnits="userSpaceOnUse"
       id="clipPath118"><path
         d="m 2739.34,2022.27 c 0,-7.98 -6.46,-14.45 -14.44,-14.45 h -64.96 c -7.98,0 -14.45,6.47 -14.45,14.45 v 220.14 c 0,7.99 6.47,14.45 14.45,14.45 h 64.96 c 7.98,0 14.44,-6.46 14.44,-14.45 z"
         id="path116"
         inkscape:connector-curvature="0" /></clipPath><linearGradient
       x1="0"
       y1="0"
       x2="1"
       y2="0"
       gradientUnits="userSpaceOnUse"
       gradientTransform="matrix(93.8428,0,0,-93.8428,2645.49,2132.34)"
       spreadMethod="pad"
       id="linearGradient132"><stop
         style="stop-opacity:1;stop-color:#a8acaa"
         offset="0"
         id="stop120" /><stop
         style="stop-opacity:1;stop-color:#a8acaa"
         offset="0.0198687"
         id="stop122" /><stop
         style="stop-opacity:1;stop-color:#131112"
         offset="0.17029"
         id="stop124" /><stop
         style="stop-opacity:1;stop-color:#131112"
         offset="0.467391"
         id="stop126" /><stop
         style="stop-opacity:1;stop-color:#131112"
         offset="0.815217"
         id="stop128" /><stop
         style="stop-opacity:1;stop-color:#a8acaa"
         offset="1"
         id="stop130" /></linearGradient><clipPath
       clipPathUnits="userSpaceOnUse"
       id="clipPath142"><path
         d="m 2818.06,2182.26 h -256.04 c -21.68,0 -39.58,21.88 -42.31,50.21 -0.24,2.47 -0.36,4.99 -0.36,7.54 v 227.31 -88.96 h 341.38 v -138.35 c 0,-2.55 -0.12,-5.07 -0.36,-7.54 -2.73,-28.33 -20.64,-50.21 -42.31,-50.21"
         id="path140"
         inkscape:connector-curvature="0" /></clipPath><linearGradient
       x1="0"
       y1="0"
       x2="1"
       y2="0"
       gradientUnits="userSpaceOnUse"
       gradientTransform="matrix(341.387,0,0,-341.387,2519.35,2382.57)"
       spreadMethod="pad"
       id="linearGradient156"><stop
         style="stop-opacity:1;stop-color:#a8acaa"
         offset="0"
         id="stop144" /><stop
         style="stop-opacity:1;stop-color:#a8acaa"
         offset="0.0198687"
         id="stop146" /><stop
         style="stop-opacity:1;stop-color:#131112"
         offset="0.17029"
         id="stop148" /><stop
         style="stop-opacity:1;stop-color:#131112"
         offset="0.467391"
         id="stop150" /><stop
         style="stop-opacity:1;stop-color:#131112"
         offset="0.815217"
         id="stop152" /><stop
         style="stop-opacity:1;stop-color:#a8acaa"
         offset="1"
         id="stop154" /></linearGradient><clipPath
       clipPathUnits="userSpaceOnUse"
       id="clipPath166"><path
         d="m 2860.73,2378.36 h 0.1211 v 88.9609 h -0.1211 z"
         id="path164"
         inkscape:connector-curvature="0" /></clipPath><clipPath
       clipPathUnits="userSpaceOnUse"
       id="clipPath178"><path
         d="m 2519.35,2378.36 h 341.379 v 88.9609 H 2519.35 Z"
         id="path176"
         inkscape:connector-curvature="0" /></clipPath><clipPath
       clipPathUnits="userSpaceOnUse"
       id="clipPath192"><path
         d="m 3918.94,5881.35 h -47.57 V 6633 h 47.57 l -18.23,-371.06 z"
         id="path190"
         inkscape:connector-curvature="0" /></clipPath><linearGradient
       x1="0"
       y1="0"
       x2="1"
       y2="0"
       gradientUnits="userSpaceOnUse"
       gradientTransform="matrix(-3.29e-5,751.646,751.646,3.29e-5,3895.15,5881.35)"
       spreadMethod="pad"
       id="linearGradient212"><stop
         style="stop-opacity:1;stop-color:#1b181b"
         offset="0"
         id="stop194" /><stop
         style="stop-opacity:1;stop-color:#e0dddb"
         offset="0.0483869"
         id="stop196" /><stop
         style="stop-opacity:1;stop-color:#8e9495"
         offset="0.0860215"
         id="stop198" /><stop
         style="stop-opacity:1;stop-color:#70767a"
         offset="0.252689"
         id="stop200" /><stop
         style="stop-opacity:1;stop-color:#5b5e65"
         offset="0.510753"
         id="stop202" /><stop
         style="stop-opacity:1;stop-color:#868d8f"
         offset="0.645161"
         id="stop204" /><stop
         style="stop-opacity:1;stop-color:#505259"
         offset="0.903226"
         id="stop206" /><stop
         style="stop-opacity:1;stop-color:#e0dddb"
         offset="0.94086"
         id="stop208" /><stop
         style="stop-opacity:1;stop-color:#1b181b"
         offset="1"
         id="stop210" /></linearGradient><clipPath
       clipPathUnits="userSpaceOnUse"
       id="clipPath222"><path
         d="m 3256.43,7330.3 h 246.629 v 25.1406 H 3256.43 Z"
         id="path220"
         inkscape:connector-curvature="0" /></clipPath><linearGradient
       x1="0"
       y1="0"
       x2="1"
       y2="0"
       gradientUnits="userSpaceOnUse"
       gradientTransform="matrix(-246.636,-1.08e-5,-1.08e-5,246.636,3503.06,7328.1)"
       spreadMethod="pad"
       id="linearGradient240"><stop
         style="stop-opacity:1;stop-color:#1b181b"
         offset="0"
         id="stop224" /><stop
         style="stop-opacity:1;stop-color:#8e9495"
         offset="0.0860215"
         id="stop226" /><stop
         style="stop-opacity:1;stop-color:#70767a"
         offset="0.166667"
         id="stop228" /><stop
         style="stop-opacity:1;stop-color:#e0dddb"
         offset="0.413979"
         id="stop230" /><stop
         style="stop-opacity:1;stop-color:#868d8f"
         offset="0.5"
         id="stop232" /><stop
         style="stop-opacity:1;stop-color:#505259"
         offset="0.903226"
         id="stop234" /><stop
         style="stop-opacity:1;stop-color:#e0dddb"
         offset="0.94086"
         id="stop236" /><stop
         style="stop-opacity:1;stop-color:#1b181b"
         offset="1"
         id="stop238" /></linearGradient><clipPath
       clipPathUnits="userSpaceOnUse"
       id="clipPath250"><path
         d="m 3919.78,3068.98 h -47.52 v 371.17 h 47.52 z"
         id="path248"
         inkscape:connector-curvature="0" /></clipPath><linearGradient
       x1="0"
       y1="0"
       x2="1"
       y2="0"
       gradientUnits="userSpaceOnUse"
       gradientTransform="matrix(-1.62e-5,371.172,371.172,1.62e-5,3896.02,3068.98)"
       spreadMethod="pad"
       id="linearGradient268"><stop
         style="stop-opacity:1;stop-color:#1b181b"
         offset="0"
         id="stop252" /><stop
         style="stop-opacity:1;stop-color:#e0dddb"
         offset="0.0591398"
         id="stop254" /><stop
         style="stop-opacity:1;stop-color:#505259"
         offset="0.0967742"
         id="stop256" /><stop
         style="stop-opacity:1;stop-color:#868d8f"
         offset="0.5"
         id="stop258" /><stop
         style="stop-opacity:1;stop-color:#e0dddb"
         offset="0.586021"
         id="stop260" /><stop
         style="stop-opacity:1;stop-color:#70767a"
         offset="0.833333"
         id="stop262" /><stop
         style="stop-opacity:1;stop-color:#8e9495"
         offset="0.913979"
         id="stop264" /><stop
         style="stop-opacity:1;stop-color:#1b181b"
         offset="1"
         id="stop266" /></linearGradient><clipPath
       clipPathUnits="userSpaceOnUse"
       id="clipPath278"><path
         d="m 1518.91,2621.32 v 0 4555.98 c 0,50.89 24.89,95.95 63.17,123.67 v 0 c -38.28,-27.72 -63.17,-72.78 -63.17,-123.67 v -139.9 h 38.79 V 3070.46 h -38.79 v -449.14 m 2367.87,449.14 h -47.7 V 7037.4 h 47.7 V 3070.46 m -127.15,0 H 3373.99 L 2740.32,7037.4 h 335.41 l 668.93,-3820.77 c 0.91,-15.89 1.73,-26.83 2.12,-26.83 0.24,0 0.3,4.22 0.11,14.07 l -2.23,12.76 c -2.42,42.29 -5.42,119.68 -2.23,119.68 l -2,1458.13 c 0,0 -11.73,-484.03 -15.62,-549.02 -1.9,-31.57 -5.35,-40.94 -8.77,-40.94 -4.98,0 -9.9,19.83 -9.9,19.83 l -490.1,2813.09 h 543.59 V 3070.46 m -1675.02,0 H 1637.16 V 7037.4 h 99.86 l 347.59,-3966.94"
         id="path276"
         inkscape:connector-curvature="0" /></clipPath><linearGradient
       x1="0"
       y1="0"
       x2="1"
       y2="0"
       gradientUnits="userSpaceOnUse"
       gradientTransform="matrix(-2.125e-4,4861.12,4861.12,2.125e-4,2702.85,2468.78)"
       spreadMethod="pad"
       id="linearGradient286"><stop
         style="stop-opacity:1;stop-color:#131112"
         offset="0"
         id="stop280" /><stop
         style="stop-opacity:1;stop-color:#1b181b"
         offset="0.505376"
         id="stop282" /><stop
         style="stop-opacity:1;stop-color:#131112"
         offset="1"
         id="stop284" /></linearGradient><clipPath
       clipPathUnits="userSpaceOnUse"
       id="clipPath296"><path
         d="m 1581.73,2497.97 c -38.08,27.73 -62.82,72.65 -62.82,123.35 v 0 449.14 h 38.79 v -486.94 c 0,-14.82 8.07,-28.46 21.61,-39.3 v -26.51 c 0,-7.01 0.86,-13.68 2.42,-19.74 m 2226.97,8.54 H 1609.71 c -13.97,0 -25.72,15.59 -29.29,36.84 18.72,-14.46 47.35,-23.71 79.44,-23.71 h 79.47 c -56.43,0 -102.17,28.6 -102.17,63.88 v 486.94 h 447.45 L 2127.14,2585 c 8.16,-60.73 -323.74,-65.11 -368.48,-65.36 h -2.73 c -2.56,0 -2.85,-0.01 -1.19,-0.01 0.84,0 2.15,0 3.92,0.01 h 1703.32 l -87.99,550.82 h 385.64 v -486.94 c 0,-35.28 -45.77,-63.88 -102.18,-63.88 h 79.46 c 56.44,0 102.17,28.6 102.17,63.88 v 486.94 h 47.7 v -449.14 c 0,-43.8 -18.47,-83.28 -48.04,-111.1 0.22,2.44 0.34,4.94 0.34,7.49 v 39.2 c 0,-27.84 -13.62,-50.4 -30.38,-50.4"
         id="path294"
         inkscape:connector-curvature="0" /></clipPath><linearGradient
       x1="0"
       y1="0"
       x2="1"
       y2="0"
       gradientUnits="userSpaceOnUse"
       gradientTransform="matrix(-2367.88,-1.035e-4,-1.035e-4,2367.88,3886.78,2769.62)"
       spreadMethod="pad"
       id="linearGradient306"><stop
         style="stop-opacity:1;stop-color:#2e2c33"
         offset="0"
         id="stop298" /><stop
         style="stop-opacity:1;stop-color:#2e2c33"
         offset="0.00537634"
         id="stop300" /><stop
         style="stop-opacity:1;stop-color:#1b181b"
         offset="0.516129"
         id="stop302" /><stop
         style="stop-opacity:1;stop-color:#2e2c33"
         offset="1"
         id="stop304" /></linearGradient><clipPath
       clipPathUnits="userSpaceOnUse"
       id="clipPath316"><path
         d="m 3886.78,7037.4 v 0 h -47.7 v 168.61 c 0,35.31 -45.73,63.92 -102.17,63.92 h -79.46 c 56.41,0 102.18,-28.61 102.18,-63.92 V 7037.4 h -543.59 l -28.44,163.25 -0.41,17 c 0,0 -0.41,31.64 11.46,37.37 16.25,7.86 65.06,14.91 65.06,14.91 h -14.47 v 0 h -1461.5 c -36.1,0 -65.37,-29.29 -65.37,-65.37 l 14.65,-167.16 h -99.86 v 168.61 c 0,35.31 45.74,63.92 102.17,63.92 h -79.47 c -32.66,0 -61.72,-9.57 -80.42,-24.48 1.43,25.6 14.44,45.65 30.27,45.65 H 3808.7 c 16.78,0 30.38,-22.55 30.38,-50.37 v 39.19 c 0,2.95 -0.16,5.83 -0.45,8.64 29.64,-27.83 48.15,-67.38 48.15,-111.26 v 0 -70.5 -69.4 m -811.05,0 h -335.41 l -26.08,163.25 -2.79,17 c 0,0 -2.91,31.64 80.52,37.37 54.94,3.78 163,7.38 260.27,10.09 -3.38,-9.74 -5.77,-33.2 -5.77,-60.55 l 29.26,-167.16 m -1518.03,0 h -38.79 v 139.9 c 0,50.89 24.89,95.95 63.17,123.67 -1.78,-6.4 -2.77,-13.53 -2.77,-21.05 v -34.58 c -13.54,-10.85 -21.61,-24.5 -21.61,-39.33 V 7037.4"
         id="path314"
         inkscape:connector-curvature="0" /></clipPath><linearGradient
       x1="0"
       y1="0"
       x2="1"
       y2="0"
       gradientUnits="userSpaceOnUse"
       gradientTransform="matrix(-2367.88,-1.035e-4,-1.035e-4,2367.88,3886.78,7183.66)"
       spreadMethod="pad"
       id="linearGradient326"><stop
         style="stop-opacity:1;stop-color:#2e2c33"
         offset="0"
         id="stop318" /><stop
         style="stop-opacity:1;stop-color:#2e2c33"
         offset="0.00537636"
         id="stop320" /><stop
         style="stop-opacity:1;stop-color:#1b181b"
         offset="0.516129"
         id="stop322" /><stop
         style="stop-opacity:1;stop-color:#2e2c33"
         offset="1"
         id="stop324" /></linearGradient><clipPath
       clipPathUnits="userSpaceOnUse"
       id="clipPath336"><path
         d="m 1557.7,3070.46 h 79.4609 V 7037.4 H 1557.7 Z"
         id="path334"
         inkscape:connector-curvature="0" /></clipPath><clipPath
       clipPathUnits="userSpaceOnUse"
       id="clipPath348"><path
         d="m 1739.33,2519.64 h -79.47 c -32.09,0 -60.72,9.25 -79.44,23.71 -0.73,4.31 -1.11,8.86 -1.11,13.56 v -12.69 c -13.54,10.84 -21.61,24.48 -21.61,39.3 v 486.94 h 79.46 v -486.94 c 0,-35.28 45.74,-63.88 102.17,-63.88"
         id="path346"
         inkscape:connector-curvature="0" /></clipPath><clipPath
       clipPathUnits="userSpaceOnUse"
       id="clipPath360"><path
         d="m 1637.16,7037.4 h -79.46 v 168.61 c 0,14.83 8.07,28.48 21.61,39.33 v -4.61 c 0,1.59 0.04,3.16 0.13,4.72 18.7,14.91 47.76,24.48 80.42,24.48 h 79.47 c -56.43,0 -102.17,-28.61 -102.17,-63.92 V 7037.4"
         id="path358"
         inkscape:connector-curvature="0" /></clipPath><clipPath
       clipPathUnits="userSpaceOnUse"
       id="clipPath372"><path
         d="m 3838.63,7288.56 c -27.3,25.64 -64.03,41.35 -104.42,41.35 h -231.15 v 0.39 h 305.64 c 15,0 27.46,-18.02 29.93,-41.74 m -2256.55,12.41 c 4.81,17.32 15.37,29.33 27.63,29.33 h 1646.72 v -0.39 H 1671.52 c -33.41,0 -64.31,-10.73 -89.44,-28.94"
         id="path370"
         inkscape:connector-curvature="0" /></clipPath><clipPath
       clipPathUnits="userSpaceOnUse"
       id="clipPath384"><path
         d="m 3256.43,7329.91 h 246.629 v 0.3906 H 3256.43 Z"
         id="path382"
         inkscape:connector-curvature="0" /></clipPath><clipPath
       clipPathUnits="userSpaceOnUse"
       id="clipPath396"><path
         d="m 3839.08,7240.73 c 0,27.82 -13.6,50.37 -30.38,50.37 H 1609.71 c -15.83,0 -28.84,-20.05 -30.27,-45.65 -0.05,-0.04 -0.09,-0.08 -0.13,-0.11 v 34.58 c 0,7.52 0.99,14.65 2.77,21.05 25.13,18.21 56.03,28.94 89.44,28.94 h 2062.69 c 40.39,0 77.12,-15.71 104.42,-41.35 0.29,-2.81 0.45,-5.69 0.45,-8.64 v -39.19"
         id="path394"
         inkscape:connector-curvature="0" /></clipPath><clipPath
       clipPathUnits="userSpaceOnUse"
       id="clipPath408"><path
         d="m 1579.31,7240.73 v 4.61 c 0.04,0.03 0.08,0.07 0.13,0.11 -0.09,-1.56 -0.13,-3.13 -0.13,-4.72"
         id="path406"
         inkscape:connector-curvature="0" /></clipPath><clipPath
       clipPathUnits="userSpaceOnUse"
       id="clipPath420"><path
         d="m 3808.7,2467.32 h -947.85 v 1.46 h 873.36 c 40.45,0 77.22,15.74 104.53,41.44 -2.18,-24.29 -14.81,-42.9 -30.04,-42.9 m -1289.35,0 h -909.64 c -12.57,0 -23.35,12.62 -27.98,30.65 25.19,-18.36 56.22,-29.19 89.79,-29.19 h 847.83 v -1.46"
         id="path418"
         inkscape:connector-curvature="0" /></clipPath><clipPath
       clipPathUnits="userSpaceOnUse"
       id="clipPath432"><path
         d="m 2860.73,2467.32 h 0.1211 v 1.4609 h -0.1211 z"
         id="path430"
         inkscape:connector-curvature="0" /></clipPath><clipPath
       clipPathUnits="userSpaceOnUse"
       id="clipPath444"><path
         d="m 2519.35,2467.32 h 341.379 v 1.4609 H 2519.35 Z"
         id="path442"
         inkscape:connector-curvature="0" /></clipPath><clipPath
       clipPathUnits="userSpaceOnUse"
       id="clipPath456"><path
         d="M 3734.21,2468.78 H 1671.52 c -33.57,0 -64.6,10.83 -89.79,29.19 -1.56,6.06 -2.42,12.73 -2.42,19.74 v 26.51 c 0.36,-0.29 0.73,-0.58 1.11,-0.87 3.57,-21.25 15.32,-36.84 29.29,-36.84 H 3808.7 c 16.76,0 30.38,22.56 30.38,50.4 v -39.2 c 0,-2.55 -0.12,-5.05 -0.34,-7.49 -27.31,-25.7 -64.08,-41.44 -104.53,-41.44"
         id="path454"
         inkscape:connector-curvature="0" /></clipPath><clipPath
       clipPathUnits="userSpaceOnUse"
       id="clipPath468"><path
         d="m 1580.42,2543.35 c -0.38,0.29 -0.75,0.58 -1.11,0.87 v 12.69 c 0,-4.7 0.38,-9.25 1.11,-13.56"
         id="path466"
         inkscape:connector-curvature="0" /></clipPath><clipPath
       clipPathUnits="userSpaceOnUse"
       id="clipPath480"><path
         d="m 3759.63,3070.46 h 79.4492 V 7037.4 H 3759.63 Z"
         id="path478"
         inkscape:connector-curvature="0" /></clipPath><clipPath
       clipPathUnits="userSpaceOnUse"
       id="clipPath492"><path
         d="m 3736.91,2519.64 h -79.46 c 56.41,0 102.18,28.6 102.18,63.88 v 486.94 h 79.45 v -486.94 c 0,-35.28 -45.73,-63.88 -102.17,-63.88"
         id="path490"
         inkscape:connector-curvature="0" /></clipPath><clipPath
       clipPathUnits="userSpaceOnUse"
       id="clipPath504"><path
         d="m 3839.08,7037.4 h -79.45 v 168.61 c 0,35.31 -45.77,63.92 -102.18,63.92 h 79.46 c 56.44,0 102.17,-28.61 102.17,-63.92 V 7037.4"
         id="path502"
         inkscape:connector-curvature="0" /></clipPath><clipPath
       clipPathUnits="userSpaceOnUse"
       id="clipPath516"><path
         d="m 1754.74,2519.63 c -1.66,0 -1.37,0.01 1.19,0.01 h 2.73 c -1.77,-0.01 -3.08,-0.01 -3.92,-0.01"
         id="path514"
         inkscape:connector-curvature="0" /></clipPath><clipPath
       clipPathUnits="userSpaceOnUse"
       id="clipPath528"><path
         d="M 3373.99,3070.46 H 2084.61 L 1737.02,7037.4 h 1003.3 l 633.67,-3966.94"
         id="path526"
         inkscape:connector-curvature="0" /></clipPath><clipPath
       clipPathUnits="userSpaceOnUse"
       id="clipPath540"><path
         d="M 3461.98,2519.64 H 1758.66 c 44.74,0.25 376.64,4.63 368.48,65.36 l -42.53,485.46 h 1289.38 l 87.99,-550.82"
         id="path538"
         inkscape:connector-curvature="0" /></clipPath><clipPath
       clipPathUnits="userSpaceOnUse"
       id="clipPath552"><path
         d="m 2740.32,7037.4 h -1003.3 l -14.65,167.16 c 0,36.08 29.27,65.37 65.37,65.37 h 1461.5 v 0 h -193.49 c -1.24,0 -2.42,-1.71 -3.51,-4.82 -97.27,-2.71 -205.33,-6.31 -260.27,-10.09 -83.43,-5.73 -80.52,-37.37 -80.52,-37.37 l 2.79,-17 26.08,-163.25"
         id="path550"
         inkscape:connector-curvature="0" /></clipPath><clipPath
       clipPathUnits="userSpaceOnUse"
       id="clipPath564"><path
         d="m 3746.78,3189.8 c -0.39,0 -1.21,10.94 -2.12,26.83 l 2.23,-12.76 c 0.19,-9.85 0.13,-14.07 -0.11,-14.07 m -2.12,26.83 -668.93,3820.77 h 140.31 l 490.1,-2813.09 c 0,0 4.92,-19.83 9.9,-19.83 3.42,0 6.87,9.37 8.77,40.94 3.89,64.99 15.62,549.02 15.62,549.02 l 2,-1458.13 c -3.19,0 -0.19,-77.39 2.23,-119.68"
         id="path562"
         inkscape:connector-curvature="0" /></clipPath><clipPath
       clipPathUnits="userSpaceOnUse"
       id="clipPath576"><path
         d="m 3216.04,7037.4 h -140.31 l -29.26,167.16 c 0,27.35 2.39,50.81 5.77,60.55 104.75,2.93 197,4.82 197,4.82 h 14.47 c 0,0 -48.81,-7.05 -65.06,-14.91 -11.87,-5.73 -11.46,-37.37 -11.46,-37.37 l 0.41,-17 28.44,-163.25"
         id="path574"
         inkscape:connector-curvature="0" /></clipPath><clipPath
       clipPathUnits="userSpaceOnUse"
       id="clipPath588"><path
         d="m 3052.24,7265.11 c 1.09,3.11 2.27,4.82 3.51,4.82 h 193.49 c 0,0 -92.25,-1.89 -197,-4.82"
         id="path586"
         inkscape:connector-curvature="0" /></clipPath><clipPath
       clipPathUnits="userSpaceOnUse"
       id="clipPath600"><path
         d="m 2438.86,7107.13 c -29.98,0 -54.42,24.4 -54.42,54.44 0,29.94 24.44,54.36 54.42,54.36 h 527.45 c 30.03,0 54.43,-24.42 54.43,-54.36 0,-30.04 -24.4,-54.44 -54.43,-54.44 z"
         id="path598"
         inkscape:connector-curvature="0" /></clipPath><linearGradient
       x1="0"
       y1="0"
       x2="1"
       y2="0"
       gradientUnits="userSpaceOnUse"
       gradientTransform="matrix(-4.8e-6,108.794,108.794,4.8e-6,2702.59,7107.13)"
       spreadMethod="pad"
       id="linearGradient612"><stop
         style="stop-opacity:1;stop-color:#1b181b"
         offset="0"
         id="stop602" /><stop
         style="stop-opacity:1;stop-color:#70767a"
         offset="0.166667"
         id="stop604" /><stop
         style="stop-opacity:1;stop-color:#868d8f"
         offset="0.5"
         id="stop606" /><stop
         style="stop-opacity:1;stop-color:#505259"
         offset="0.903226"
         id="stop608" /><stop
         style="stop-opacity:1;stop-color:#1b181b"
         offset="1"
         id="stop610" /></linearGradient><clipPath
       clipPathUnits="userSpaceOnUse"
       id="clipPath624"><path
         d="m 2980.75,7161.57 c 0,-17.43 -18.52,-31.59 -41.39,-31.59 h -473.5 c -22.84,0 -41.41,14.16 -41.41,31.59 0,17.36 18.57,31.48 41.41,31.48 h 473.5 c 22.87,0 41.39,-14.12 41.39,-31.48 z"
         id="path622"
         inkscape:connector-curvature="0" /></clipPath><linearGradient
       x1="0"
       y1="0"
       x2="1"
       y2="0"
       gradientUnits="userSpaceOnUse"
       gradientTransform="matrix(-2.8e-6,63.0664,63.0664,2.8e-6,2702.6,7129.98)"
       spreadMethod="pad"
       id="linearGradient636"><stop
         style="stop-opacity:1;stop-color:#1b181b"
         offset="0"
         id="stop626" /><stop
         style="stop-opacity:1;stop-color:#505259"
         offset="0.0967742"
         id="stop628" /><stop
         style="stop-opacity:1;stop-color:#868d8f"
         offset="0.5"
         id="stop630" /><stop
         style="stop-opacity:1;stop-color:#70767a"
         offset="0.833333"
         id="stop632" /><stop
         style="stop-opacity:1;stop-color:#1b181b"
         offset="1"
         id="stop634" /></linearGradient><clipPath
       clipPathUnits="userSpaceOnUse"
       id="clipPath662"><path
         d="m 6051.73,7001.83 0.29,-20.11 -18.91,-0.47 -0.46,24.07 -25.27,-0.65 0.47,-24.06 -18.93,-0.48 -0.46,24.07 -25.27,-0.66 0.46,-24.07 -18.93,-0.48 -0.48,24.07 -26.52,-0.68 0.47,-24.07 -18.94,-0.47 -0.98,26.7 6.45,-2.45 -12.74,-0.66 c -2.02,-0.21 -4.09,0.52 -6.27,0.8 -4,0.52 -8.04,1 -12.09,1.48 l 0.86,-102.17 23.32,0.38 -1.31,12.5 18.95,0.48 -1.12,-15.53 26.5,0.67 1.13,15.54 18.94,0.48 -1.1,-15.54 25.23,0.66 1.13,15.53 18.95,0.47 -1.12,-15.53 25.25,0.65 1.12,15.53 18.95,0.5 0.65,-18.8 32.89,0.17 -0.32,101.28 z"
         id="path660"
         inkscape:connector-curvature="0" /></clipPath><linearGradient
       x1="0"
       y1="0"
       x2="1"
       y2="0"
       gradientUnits="userSpaceOnUse"
       gradientTransform="matrix(5.50857,105.087,134.172,-3.88309,5975.51,6899.74)"
       spreadMethod="pad"
       id="linearGradient672"><stop
         style="stop-opacity:1;stop-color:#131112"
         offset="0"
         id="stop664" /><stop
         style="stop-opacity:1;stop-color:#1b181b"
         offset="0.172535"
         id="stop666" /><stop
         style="stop-opacity:1;stop-color:#131112"
         offset="0.672535"
         id="stop668" /><stop
         style="stop-opacity:1;stop-color:#131112"
         offset="1"
         id="stop670" /></linearGradient><clipPath
       clipPathUnits="userSpaceOnUse"
       id="clipPath682"><path
         d="m 5197.93,6815.36 -284.35,0.06 c 0,0 -22.76,7.93 -25.63,24.45 -2.88,16.52 -0.87,251.67 -0.87,251.67 0,0 1.72,23.51 31.22,23.51 10.58,0 279.64,-1.21 279.64,-1.21 z"
         id="path680"
         inkscape:connector-curvature="0" /></clipPath><linearGradient
       x1="0"
       y1="0"
       x2="1"
       y2="0"
       gradientUnits="userSpaceOnUse"
       gradientTransform="matrix(0.0141022,299.669,299.669,-0.0141022,5042.17,6815.36)"
       spreadMethod="pad"
       id="linearGradient708"><stop
         style="stop-opacity:1;stop-color:#8e9495"
         offset="0"
         id="stop684" /><stop
         style="stop-opacity:1;stop-color:#ffffff"
         offset="0.0376351"
         id="stop686" /><stop
         style="stop-opacity:1;stop-color:#a8acaa"
         offset="0.166667"
         id="stop688" /><stop
         style="stop-opacity:1;stop-color:#a8acaa"
         offset="0.225807"
         id="stop690" /><stop
         style="stop-opacity:1;stop-color:#bab9b7"
         offset="0.263441"
         id="stop692" /><stop
         style="stop-opacity:1;stop-color:#e0dddb"
         offset="0.306452"
         id="stop694" /><stop
         style="stop-opacity:1;stop-color:#c3c2c0"
         offset="0.413978"
         id="stop696" /><stop
         style="stop-opacity:1;stop-color:#ffffff"
         offset="0.661291"
         id="stop698" /><stop
         style="stop-opacity:1;stop-color:#8e9495"
         offset="0.704301"
         id="stop700" /><stop
         style="stop-opacity:1;stop-color:#e0dddb"
         offset="0.817204"
         id="stop702" /><stop
         style="stop-opacity:1;stop-color:#ffffff"
         offset="0.88172"
         id="stop704" /><stop
         style="stop-opacity:1;stop-color:#c3c2c0"
         offset="1"
         id="stop706" /></linearGradient><clipPath
       clipPathUnits="userSpaceOnUse"
       id="clipPath718"><path
         d="m 5922.59,6815.12 1.05,266.98 -129.98,0.17 c 0,0 -89.5,-4.89 -91.86,88.32 l -479.07,-1.17 c 0,0 -33.04,-5.9 -37.76,-40.12 -3.87,-28.05 -1.77,-346.03 -1.77,-346.03 0,0 6.07,-25.27 34.77,-25.71 15.82,-0.25 483.83,-1.14 483.83,-1.14 2.36,50.74 62.53,59.33 93.88,59.33 52.62,0 126.91,-0.63 126.91,-0.63 z"
         id="path716"
         inkscape:connector-curvature="0" /></clipPath><linearGradient
       x1="0"
       y1="0"
       x2="1"
       y2="0"
       gradientUnits="userSpaceOnUse"
       gradientTransform="matrix(0,414.17,414.17,0,5553.13,6756.42)"
       spreadMethod="pad"
       id="linearGradient732"><stop
         style="stop-opacity:1;stop-color:#131112"
         offset="0"
         id="stop720" /><stop
         style="stop-opacity:1;stop-color:#1b181b"
         offset="0.172535"
         id="stop722" /><stop
         style="stop-opacity:1;stop-color:#131112"
         offset="0.28169"
         id="stop724" /><stop
         style="stop-opacity:1;stop-color:#1a171b"
         offset="0.545775"
         id="stop726" /><stop
         style="stop-opacity:1;stop-color:#131112"
         offset="0.873239"
         id="stop728" /><stop
         style="stop-opacity:1;stop-color:#131112"
         offset="1"
         id="stop730" /></linearGradient></defs><sodipodi:namedview
     pagecolor="#ffffff"
     bordercolor="#666666"
     borderopacity="1"
     objecttolerance="10"
     gridtolerance="10"
     guidetolerance="10"
     inkscape:pageopacity="0"
     inkscape:pageshadow="2"
     inkscape:window-width="1366"
     inkscape:window-height="665"
     id="namedview4"
     showgrid="false"
     inkscape:zoom="0.61875881"
     inkscape:cx="-299.58426"
     inkscape:cy="13.651755"
     inkscape:window-x="0"
     inkscape:window-y="24"
     inkscape:window-maximized="1"
     inkscape:current-layer="layer1"
     fit-margin-top="0"
     fit-margin-left="0"
     fit-margin-right="0"
     fit-margin-bottom="0" /><g
     inkscape:groupmode="layer"
     id="layer1"
     inkscape:label="USB"
     transform="translate(-221.40273,-352.03315)"><path
       inkscape:connector-curvature="0"
       id="path654"
       style="fill:#000000;fill-opacity:1;fill-rule:evenodd;stroke:none;stroke-width:0.13333333"
       d="M271.54612 417.34798L270.016431094 422.265833281L267.69261875 426.62181375L264.564557031 430.410544844L260.62212 433.62665L256.656038594 435.815272187L252.49345625 437.2136475L248.142873281 437.825524062L243.61279 437.65465L239.158447617 436.702153008L235.029058437 434.997937813L231.302075664 432.618910586L228.0549525 429.6419775L225.365142148 426.144044727L223.310097813 422.202018438L221.967272695 417.892804805L221.41412 413.29331L221.687123555 408.750766836L222.737392188 404.446957813L224.496316602 400.456617383L226.8952875 396.85448L229.865695586 393.715280117L233.338931562 391.113752188L237.246386133 389.124630664L241.51945 387.82265L248.11795375 387.30965125L254.62345 388.57065L260.55095375 391.448815L265.52745 395.76398L269.276615 401.228645L271.45678 407.49731L272.02078 407.52401L287.09412 407.50531L292.5536175 406.76163375L297.63012 404.55998L300.18078 402.41465L319.86345 381.67598L329.60878 371.41198L333.75728 367.65664875L338.47278 364.64132L341.90094875 363.20448375L345.52612 362.41465L347.54878 362.31865L373.77545 362.30965L374.23278 362.30965L374.86612 361.86965L376.668243125 358.4462125L379.0721175 355.70715L382.085993125 353.6903375L385.71812 352.43365L389.804866094 352.042878594L393.58311375 352.71148125L397.034862031 354.410833281L400.14211 357.11231L401.837154062 359.312976719L403.0404475 361.71264375L403.749239687 364.298811406L403.96078 367.05898L403.4406275 371.068395312L402.02046 374.5753125L399.7097875 377.562730937L396.51812 380.01365L392.413618125 381.712397656L388.1091175 382.10464625L383.867118125 381.220396719L379.95012 379.08965L376.93745125 376.11414875L374.90078 372.40565L374.74345 371.97498L374.61945 371.84298L373.98612 371.84298L348.16478 371.82568L345.219115 372.2065125L342.48345 373.31234L339.3046175 375.42634375L336.52078 378.00834L318.89678 396.57367L309.09812 406.87234L308.53545 407.48834L464.80211 407.48834L464.80211 394.97234L464.90878 394.92164L464.96078 394.90294L465.22345 395.02694L495.26745 412.48427L464.85411 430.11894L464.83681 423.71494L464.83681 417.38294L346.45948 417.38294L346.77548 417.78827L355.00748 426.45894L368.92081 441.12827L375.41148 447.87494L378.30464875 450.38560375L381.62081 452.31627L383.76048125 453.05227125L386.01815 453.30027L410.80214 453.29227L411.45281 453.29227L411.45281 449.87094L411.45281 446.51094L411.45281 443.1336L441.77681 443.1163L441.77681 473.2923L411.47014 473.3096L411.47014 462.8256L410.66081 462.8256L386.15815 462.8346L383.0308125 462.62076375L379.96748 461.91993L376.36148 460.383595L373.01948 458.31326L367.16215 453.11593L343.52215 428.1826L337.77015 422.1666L335.4989825 420.34643125L332.89681 419.00126L328.63648 417.7279325L324.19015 417.3386L272.12481 417.3476L271.54615 417.3476" /></g></svg>