solid OpenSCAD_Model
  facet normal -1 0 0
    outer loop
      vertex 0 0 0
      vertex 0 0 11
      vertex 0 39 2
    endloop
  endfacet
  facet normal 0 -1 0
    outer loop
      vertex 0 0 0
      vertex 30.5 0 0
      vertex 12 0 2
    endloop
  endfacet
  facet normal 0 -1 0
    outer loop
      vertex 0 0 0
      vertex 12 0 2
      vertex 12 0 11
    endloop
  endfacet
  facet normal 0 0 -1
    outer loop
      vertex 0 0 0
      vertex 0 74 0
      vertex 30.5 0 0
    endloop
  endfacet
  facet normal 0 -1 0
    outer loop
      vertex 0 0 0
      vertex 8 0 11
      vertex 0 0 11
    endloop
  endfacet
  facet normal 0 -1 0
    outer loop
      vertex 0 0 0
      vertex 12 0 11
      vertex 8 0 11
    endloop
  endfacet
  facet normal -1 0 0
    outer loop
      vertex 0 0 11
      vertex 0 39 11
      vertex 0 39 2
    endloop
  endfacet
  facet normal 0 0 1
    outer loop
      vertex 8 0 11
      vertex 12 2 11
      vertex 8 2 11
    endloop
  endfacet
  facet normal 0 0 1
    outer loop
      vertex 8 0 11
      vertex 12 0 11
      vertex 12 2 11
    endloop
  endfacet
  facet normal -1 0 0
    outer loop
      vertex 0 0 0
      vertex 0 39 2
      vertex 0 74 0
    endloop
  endfacet
  facet normal -1 0 0
    outer loop
      vertex 0 39 2
      vertex 0 64 2
      vertex 0 74 0
    endloop
  endfacet
  facet normal -1 0 0
    outer loop
      vertex 0 64 2
      vertex 0 74 11
      vertex 0 74 0
    endloop
  endfacet
  facet normal 0 1 0
    outer loop
      vertex 0 74 0
      vertex 0 74 11
      vertex 30.5 74 0
    endloop
  endfacet
  facet normal -1 0 0
    outer loop
      vertex 0 64 2
      vertex 0 64 11
      vertex 0 74 11
    endloop
  endfacet
  facet normal 0 1 0
    outer loop
      vertex 0 74 11
      vertex 8 74 11
      vertex 30.5 74 0
    endloop
  endfacet
  facet normal 0 -1 0
    outer loop
      vertex 12 0 2
      vertex 30.5 0 0
      vertex 30.5 0 2
    endloop
  endfacet
  facet normal 0 0 -1
    outer loop
      vertex 0 74 0
      vertex 30.5 74 0
      vertex 30.5 0 0
    endloop
  endfacet
  facet normal 0 0 1
    outer loop
      vertex 8 72 11
      vertex 30.5 74 11
      vertex 8 74 11
    endloop
  endfacet
  facet normal 0 1 0
    outer loop
      vertex 8 74 11
      vertex 30.5 74 11
      vertex 30.5 74 0
    endloop
  endfacet
  facet normal 0 0 1
    outer loop
      vertex 8 72 11
      vertex 30.5 72 11
      vertex 30.5 74 11
    endloop
  endfacet
  facet normal 0 1 0
    outer loop
      vertex 2 2 2
      vertex 8 2 11
      vertex 12 2 2
    endloop
  endfacet
  facet normal 1 0 0
    outer loop
      vertex 2 2 2
      vertex 2 39 2
      vertex 2 39 11
    endloop
  endfacet
  facet normal 0 0 1
    outer loop
      vertex 2 2 2
      vertex 12 2 2
      vertex 30.5 72 2
    endloop
  endfacet
  facet normal 1 0 0
    outer loop
      vertex 2 2 2
      vertex 2 39 11
      vertex 2 2 11
    endloop
  endfacet
  facet normal 0 1 0
    outer loop
      vertex 2 2 2
      vertex 2 2 11
      vertex 8 2 11
    endloop
  endfacet
  facet normal 0 1 0
    outer loop
      vertex 12 2 2
      vertex 8 2 11
      vertex 12 2 11
    endloop
  endfacet
  facet normal 1 0 0
    outer loop
      vertex 2 64 2
      vertex 2 72 2
      vertex 2 72 11
    endloop
  endfacet
  facet normal 0 0 1
    outer loop
      vertex 2 2 2
      vertex 30.5 72 2
      vertex 2 39 2
    endloop
  endfacet
  facet normal 0 0 1
    outer loop
      vertex 2 39 2
      vertex 30.5 72 2
      vertex 2 64 2
    endloop
  endfacet
  facet normal 0 0 1
    outer loop
      vertex 2 64 2
      vertex 30.5 72 2
      vertex 2 72 2
    endloop
  endfacet
  facet normal 1 0 0
    outer loop
      vertex 2 64 2
      vertex 2 72 11
      vertex 2 64 11
    endloop
  endfacet
  facet normal 0 -1 0
    outer loop
      vertex 2 72 2
      vertex 8 72 11
      vertex 2 72 11
    endloop
  endfacet
  facet normal 0 -1 0
    outer loop
      vertex 2 72 2
      vertex 30.5 72 11
      vertex 8 72 11
    endloop
  endfacet
  facet normal 0 0 1
    outer loop
      vertex 12 2 2
      vertex 30.5 2 2
      vertex 30.5 72 2
    endloop
  endfacet
  facet normal 0 -1 0
    outer loop
      vertex 2 72 2
      vertex 30.5 72 2
      vertex 30.5 72 11
    endloop
  endfacet
  facet normal -1 0 0
    outer loop
      vertex 2.3 2.3 2.3
      vertex 2.3 2.3 10.7
      vertex 2.3 39 2.3
    endloop
  endfacet
  facet normal 0 0 -1
    outer loop
      vertex 2.3 2.3 2.3
      vertex 2.3 39 2.3
      vertex 10.3 39 2.3
    endloop
  endfacet
  facet normal 0 0 -1
    outer loop
      vertex 2.3 2.3 2.3
      vertex 10.3 39 2.3
      vertex 10.3 2.3 2.3
    endloop
  endfacet
  facet normal 0 -1 0
    outer loop
      vertex 2.3 2.3 2.3
      vertex 10.3 2.3 2.3
      vertex 10.3 2.3 10.7
    endloop
  endfacet
  facet normal 1 0 0
    outer loop
      vertex 10.3 2.3 2.3
      vertex 10.3 39 2.3
      vertex 10.3 39 10.7
    endloop
  endfacet
  facet normal 0 -1 0
    outer loop
      vertex 2.3 2.3 2.3
      vertex 10.3 2.3 10.7
      vertex 2.3 2.3 10.7
    endloop
  endfacet
  facet normal 0 0 1
    outer loop
      vertex 2.3 2.3 10.7
      vertex 10.3 2.3 10.7
      vertex 2.3 39 10.7
    endloop
  endfacet
  facet normal -1 0 0
    outer loop
      vertex 2.3 2.3 10.7
      vertex 2.3 39 10.7
      vertex 2.3 39 2.3
    endloop
  endfacet
  facet normal 1 0 0
    outer loop
      vertex 10.3 2.3 2.3
      vertex 10.3 39 10.7
      vertex 10.3 2.3 10.7
    endloop
  endfacet
  facet normal 0 0 1
    outer loop
      vertex 10.3 2.3 10.7
      vertex 10.3 39 10.7
      vertex 2.3 39 10.7
    endloop
  endfacet
  facet normal 0 0 -1
    outer loop
      vertex 2.3 64 2.3
      vertex 2.3 71.7 2.3
      vertex 10.3 71.7 2.3
    endloop
  endfacet
  facet normal -1 0 0
    outer loop
      vertex 2.3 64 2.3
      vertex 2.3 64 10.7
      vertex 2.3 71.7 2.3
    endloop
  endfacet
  facet normal 0 1 0
    outer loop
      vertex 2.3 71.7 2.3
      vertex 2.3 71.7 10.7
      vertex 10.3 71.7 2.3
    endloop
  endfacet
  facet normal 0 0 -1
    outer loop
      vertex 2.3 64 2.3
      vertex 10.3 71.7 2.3
      vertex 10.3 64 2.3
    endloop
  endfacet
  facet normal 1 0 0
    outer loop
      vertex 10.3 64 2.3
      vertex 10.3 71.7 2.3
      vertex 10.3 71.7 10.7
    endloop
  endfacet
  facet normal -1 0 0
    outer loop
      vertex 2.3 71.7 2.3
      vertex 2.3 64 10.7
      vertex 2.3 71.7 10.7
    endloop
  endfacet
  facet normal 0 0 1
    outer loop
      vertex 2.3 64 10.7
      vertex 10.3 64 10.7
      vertex 2.3 71.7 10.7
    endloop
  endfacet
  facet normal 0 1 0
    outer loop
      vertex 10.3 71.7 2.3
      vertex 2.3 71.7 10.7
      vertex 10.3 71.7 10.7
    endloop
  endfacet
  facet normal 1 0 0
    outer loop
      vertex 10.3 64 2.3
      vertex 10.3 71.7 10.7
      vertex 10.3 64 10.7
    endloop
  endfacet
  facet normal 0 0 1
    outer loop
      vertex 2.3 71.7 10.7
      vertex 10.3 64 10.7
      vertex 10.3 71.7 10.7
    endloop
  endfacet
  facet normal 0 -1 0
    outer loop
      vertex 0 0 11
      vertex 8 0 13
      vertex 0 0 13
    endloop
  endfacet
  facet normal -1 0 0
    outer loop
      vertex 0 0 11
      vertex 0 0 13
      vertex 0 39 11
    endloop
  endfacet
  facet normal 0 0 1
    outer loop
      vertex 0 0 13
      vertex 8 0 13
      vertex 0 39 13
    endloop
  endfacet
  facet normal 0 -1 0
    outer loop
      vertex 0 0 11
      vertex 8 0 11
      vertex 8 0 13
    endloop
  endfacet
  facet normal 0 0 -1
    outer loop
      vertex 2 2 11
      vertex 8 39 11
      vertex 8 2 11
    endloop
  endfacet
  facet normal -1 0 0
    outer loop
      vertex 0 0 13
      vertex 0 39 13
      vertex 0 39 11
    endloop
  endfacet
  facet normal 0 0 -1
    outer loop
      vertex 2 2 11
      vertex 2 39 11
      vertex 8 39 11
    endloop
  endfacet
  facet normal 0 0 1
    outer loop
      vertex 8 0 13
      vertex 8 39 13
      vertex 0 39 13
    endloop
  endfacet
  facet normal 1 0 0
    outer loop
      vertex 8 0 11
      vertex 8 2 11
      vertex 8 0 13
    endloop
  endfacet
  facet normal 1 0 0
    outer loop
      vertex 8 2 11
      vertex 8 39 13
      vertex 8 0 13
    endloop
  endfacet
  facet normal 1 0 0
    outer loop
      vertex 8 2 11
      vertex 8 39 11
      vertex 8 39 13
    endloop
  endfacet
  facet normal -1 0 0
    outer loop
      vertex 0 64 11
      vertex 0 64 13
      vertex 0 74 11
    endloop
  endfacet
  facet normal -1 0 0
    outer loop
      vertex 0 64 13
      vertex 0 74 13
      vertex 0 74 11
    endloop
  endfacet
  facet normal 0 1 0
    outer loop
      vertex 0 74 11
      vertex 0 74 13
      vertex 8 74 11
    endloop
  endfacet
  facet normal 0 0 1
    outer loop
      vertex 0 64 13
      vertex 8 74 13
      vertex 0 74 13
    endloop
  endfacet
  facet normal 0 0 -1
    outer loop
      vertex 2 64 11
      vertex 2 72 11
      vertex 8 72 11
    endloop
  endfacet
  facet normal 0 0 -1
    outer loop
      vertex 2 64 11
      vertex 8 72 11
      vertex 8 64 11
    endloop
  endfacet
  facet normal 0 0 1
    outer loop
      vertex 0 64 13
      vertex 8 64 13
      vertex 8 74 13
    endloop
  endfacet
  facet normal 0 1 0
    outer loop
      vertex 0 74 13
      vertex 8 74 13
      vertex 8 74 11
    endloop
  endfacet
  facet normal 1 0 0
    outer loop
      vertex 8 64 11
      vertex 8 74 13
      vertex 8 64 13
    endloop
  endfacet
  facet normal 1 0 0
    outer loop
      vertex 8 64 11
      vertex 8 72 11
      vertex 8 74 13
    endloop
  endfacet
  facet normal 1 0 0
    outer loop
      vertex 8 72 11
      vertex 8 74 11
      vertex 8 74 13
    endloop
  endfacet
  facet normal 1 0 0
    outer loop
      vertex 12 0 2
      vertex 12 2 2
      vertex 12 2 11
    endloop
  endfacet
  facet normal 1 0 0
    outer loop
      vertex 12 0 2
      vertex 12 2 11
      vertex 12 0 11
    endloop
  endfacet
  facet normal 0 0 1
    outer loop
      vertex 12 0 2
      vertex 30.5 2 2
      vertex 12 2 2
    endloop
  endfacet
  facet normal 0 0 1
    outer loop
      vertex 12 0 2
      vertex 30.5 0 2
      vertex 30.5 2 2
    endloop
  endfacet
  facet normal 0 0 1
    outer loop
      vertex 0 39 2
      vertex 2 39 2
      vertex 0 64 2
    endloop
  endfacet
  facet normal 0 1 0
    outer loop
      vertex 0 39 2
      vertex 2 39 11
      vertex 2 39 2
    endloop
  endfacet
  facet normal 0 0 1
    outer loop
      vertex 2 39 2
      vertex 2 64 2
      vertex 0 64 2
    endloop
  endfacet
  facet normal 0 -1 0
    outer loop
      vertex 0 64 2
      vertex 2 64 2
      vertex 0 64 11
    endloop
  endfacet
  facet normal 0 -1 0
    outer loop
      vertex 2.3 64 2.3
      vertex 10.3 64 2.3
      vertex 2.3 64 10.7
    endloop
  endfacet
  facet normal 0 1 0
    outer loop
      vertex 2.3 39 2.3
      vertex 10.3 39 10.7
      vertex 10.3 39 2.3
    endloop
  endfacet
  facet normal 0 1 0
    outer loop
      vertex 0 39 2
      vertex 0 39 11
      vertex 2 39 11
    endloop
  endfacet
  facet normal 0 1 0
    outer loop
      vertex 2.3 39 2.3
      vertex 2.3 39 10.7
      vertex 10.3 39 10.7
    endloop
  endfacet
  facet normal 0 1 0
    outer loop
      vertex 0 39 11
      vertex 0 39 13
      vertex 2 39 11
    endloop
  endfacet
  facet normal 0 1 0
    outer loop
      vertex 2 39 11
      vertex 0 39 13
      vertex 8 39 11
    endloop
  endfacet
  facet normal 0 1 0
    outer loop
      vertex 0 39 13
      vertex 8 39 13
      vertex 8 39 11
    endloop
  endfacet
  facet normal 0 -1 0
    outer loop
      vertex 2 64 2
      vertex 0 64 13
      vertex 0 64 11
    endloop
  endfacet
  facet normal 0 -1 0
    outer loop
      vertex 2 64 2
      vertex 2 64 11
      vertex 0 64 13
    endloop
  endfacet
  facet normal 0 -1 0
    outer loop
      vertex 2 64 11
      vertex 8 64 13
      vertex 0 64 13
    endloop
  endfacet
  facet normal 0 -1 0
    outer loop
      vertex 2 64 11
      vertex 8 64 11
      vertex 8 64 13
    endloop
  endfacet
  facet normal 0 -1 0
    outer loop
      vertex 10.3 64 2.3
      vertex 10.3 64 10.7
      vertex 2.3 64 10.7
    endloop
  endfacet
  facet normal 1 0 0
    outer loop
      vertex 30.5 2 2
      vertex 30.5 0 2
      vertex 30.5 0 0
    endloop
  endfacet
  facet normal 1 0 0
    outer loop
      vertex 30.5 2 2
      vertex 30.5 0 0
      vertex 30.5 72 2
    endloop
  endfacet
  facet normal 1 0 0
    outer loop
      vertex 30.5 74 0
      vertex 30.5 72 2
      vertex 30.5 0 0
    endloop
  endfacet
  facet normal 1 0 0
    outer loop
      vertex 30.5 74 0
      vertex 30.5 72 11
      vertex 30.5 72 2
    endloop
  endfacet
  facet normal 1 0 0
    outer loop
      vertex 30.5 74 0
      vertex 30.5 74 11
      vertex 30.5 72 11
    endloop
  endfacet
endsolid OpenSCAD_Model
