  0
SECTION
  2
HEADER
  9
$ACADVER
  1
AC1014
  9
$HANDSEED
  5
FFFF
  9
$MEASUREMENT
 70
     1
  0
ENDSEC
  0
SECTION
  2
TABLES
  0
TABLE
  2
VPORT
  5
8
330
0
100
AcDbSymbolTable
 70
     4
  0
VPORT
  5
2E
330
8
100
AcDbSymbolTableRecord
100
AcDbViewportTableRecord
  2
*ACTIVE
 70
     0
 10
0.0
 20
0.0
 11
1.0
 21
1.0
 12
210.0
 22
148.5
 13
0.0
 23
0.0
 14
10.0
 24
10.0
 15
10.0
 25
10.0
 16
0.0
 26
0.0
 36
1.0
 17
0.0
 27
0.0
 37
0.0
 40
341.0
 41
1.24
 42
50.0
 43
0.0
 44
0.0
 50
0.0
 51
0.0
 71
     0
 72
   100
 73
     1
 74
     3
 75
     0
 76
     0
 77
     0
 78
     0
  0
ENDTAB
  0
TABLE
  2
LTYPE
  5
5
330
0
100
AcDbSymbolTable
 70
     1
  0
LTYPE
  5
14
330
5
100
AcDbSymbolTableRecord
100
AcDbLinetypeTableRecord
  2
BYBLOCK
 70
     0
  3

 72
    65
 73
     0
 40
0.0
  0
LTYPE
  5
15
330
5
100
AcDbSymbolTableRecord
100
AcDbLinetypeTableRecord
  2
BYLAYER
 70
     0
  3

 72
    65
 73
     0
 40
0.0
  0
LTYPE
  5
16
330
5
100
AcDbSymbolTableRecord
100
AcDbLinetypeTableRecord
  2
CONTINUOUS
 70
     0
  3
Solid line
 72
    65
 73
     0
 40
0.0
  0
ENDTAB
  0
TABLE
  2
LAYER
  5
2
100
AcDbSymbolTable
 70
2
  0
LAYER
  5
50
100
AcDbSymbolTableRecord
100
AcDbLayerTableRecord
  2
0
 70
0
  6
CONTINUOUS
  0
LAYER
  5
51
100
AcDbSymbolTableRecord
100
AcDbLayerTableRecord
  2
USB
 70
0
  6
CONTINUOUS
  0
ENDTAB
  0
TABLE
  2
STYLE
  5
3
330
0
100
AcDbSymbolTable
 70
     1
  0
STYLE
  5
11
330
3
100
AcDbSymbolTableRecord
100
AcDbTextStyleTableRecord
  2
STANDARD
 70
     0
 40
0.0
 41
1.0
 50
0.0
 71
     0
 42
2.5
  3
txt
  4

  0
ENDTAB
  0
TABLE
  2
VIEW
  5
6
330
0
100
AcDbSymbolTable
 70
     0
  0
ENDTAB
  0
TABLE
  2
UCS
  5
7
330
0
100
AcDbSymbolTable
 70
     0
  0
ENDTAB
  0
TABLE
  2
APPID
  5
9
330
0
100
AcDbSymbolTable
 70
     2
  0
APPID
  5
12
330
9
100
AcDbSymbolTableRecord
100
AcDbRegAppTableRecord
  2
ACAD
 70
     0
  0
ENDTAB
  0
TABLE
  2
DIMSTYLE
  5
A
330
0
100
AcDbSymbolTable
 70
     1
  0
DIMSTYLE
105
27
330
A
100
AcDbSymbolTableRecord
100
AcDbDimStyleTableRecord
  2
ISO-25
 70
     0
  3

  4

  5

  6

  7

 40
1.0
 41
2.5
 42
0.625
 43
3.75
 44
1.25
 45
0.0
 46
0.0
 47
0.0
 48
0.0
140
2.5
141
2.5
142
0.0
143
0.03937007874016
144
1.0
145
0.0
146
1.0
147
0.625
 71
     0
 72
     0
 73
     0
 74
     0
 75
     0
 76
     0
 77
     1
 78
     8
170
     0
171
     3
172
     1
173
     0
174
     0
175
     0
176
     0
177
     0
178
     0
270
     2
271
     2
272
     2
273
     2
274
     3
340
11
275
     0
280
     0
281
     0
282
     0
283
     0
284
     8
285
     0
286
     0
287
     3
288
     0
  0
ENDTAB
  0
TABLE
  2
BLOCK_RECORD
  5
1
330
0
100
AcDbSymbolTable
 70
     1
  0
BLOCK_RECORD
  5
1F
330
1
100
AcDbSymbolTableRecord
100
AcDbBlockTableRecord
  2
*MODEL_SPACE
  0
BLOCK_RECORD
  5
1B
330
1
100
AcDbSymbolTableRecord
100
AcDbBlockTableRecord
  2
*PAPER_SPACE
  0
ENDTAB
  0
ENDSEC
  0
SECTION
  2
BLOCKS
  0
BLOCK
  5
20
330
1F
100
AcDbEntity
  8
0
100
AcDbBlockBegin
  2
*MODEL_SPACE
 70
     0
 10
0.0
 20
0.0
 30
0.0
  3
*MODEL_SPACE
  1

  0
ENDBLK
  5
21
330
1F
100
AcDbEntity
  8
0
100
AcDbBlockEnd
  0
BLOCK
  5
1C
330
1B
100
AcDbEntity
 67
     1
  8
0
100
AcDbBlockBegin
  2
*PAPER_SPACE
  1

  0
ENDBLK
  5
1D
330
1B
100
AcDbEntity
 67
     1
  8
0
100
AcDbBlockEnd
  0
ENDSEC
  0
SECTION
  2
ENTITIES
  0
LWPOLYLINE
  5
100
100
AcDbEntity
  8
USB
 62
7
100
AcDbPolyline
 90
121
 70
0
 10
13.267105
 20
14.826988
 30
0.0
 10
12.862375
 20
13.525806
 30
0.0
 10
12.247533
 20
12.373286
 30
0.0
 10
11.419900
 20
11.370851
 30
0.0
 10
10.376797
 20
10.519923
 30
0.0
 10
9.327438
 20
9.940850
 30
0.0
 10
8.226088
 20
9.570864
 30
0.0
 10
7.074996
 20
9.408971
 30
0.0
 10
5.876412
 20
9.454182
 30
0.0
 10
4.697867
 20
9.706196
 30
0.0
 10
3.605299
 20
10.157103
 30
0.0
 10
2.619202
 20
10.786554
 30
0.0
 10
1.760067
 20
11.574201
 30
0.0
 10
1.048388
 20
12.499696
 30
0.0
 10
0.504658
 20
13.542690
 30
0.0
 10
0.149369
 20
14.682836
 30
0.0
 10
0.003014
 20
15.899786
 30
0.0
 10
0.075246
 20
17.101667
 30
0.0
 10
0.353129
 20
18.240384
 30
0.0
 10
0.818511
 20
19.296161
 30
0.0
 10
1.453239
 20
20.249227
 30
0.0
 10
2.239160
 20
21.079807
 30
0.0
 10
3.158120
 20
21.768128
 30
0.0
 10
4.191967
 20
22.294416
 30
0.0
 10
5.322549
 20
22.638898
 30
0.0
 10
7.068403
 20
22.774629
 30
0.0
 10
8.789649
 20
22.440990
 30
0.0
 10
10.357968
 20
21.679475
 30
0.0
 10
11.674665
 20
20.537755
 30
0.0
 10
12.666632
 20
19.091895
 30
0.0
 10
13.243467
 20
17.433311
 30
0.0
 10
13.392692
 20
17.426247
 30
0.0
 10
17.380847
 20
17.431194
 30
0.0
 10
18.825339
 20
17.627959
 30
0.0
 10
20.168497
 20
18.210480
 30
0.0
 10
20.843359
 20
18.778098
 30
0.0
 10
26.051065
 20
24.265205
 30
0.0
 10
28.629517
 20
26.980888
 30
0.0
 10
29.727141
 20
27.974486
 30
0.0
 10
30.974784
 20
28.772292
 30
0.0
 10
31.881820
 20
29.152455
 30
0.0
 10
32.840980
 20
29.361432
 30
0.0
 10
33.376142
 20
29.386832
 30
0.0
 10
40.315282
 20
29.389213
 30
0.0
 10
40.436284
 20
29.389213
 30
0.0
 10
40.603855
 20
29.505630
 30
0.0
 10
41.080667
 20
30.411414
 30
0.0
 10
41.716692
 20
31.136124
 30
0.0
 10
42.514113
 20
31.669739
 30
0.0
 10
43.475114
 20
32.002238
 30
0.0
 10
44.556399
 20
32.105629
 30
0.0
 10
45.556060
 20
31.928728
 30
0.0
 10
46.469335
 20
31.479108
 30
0.0
 10
47.291461
 20
30.764342
 30
0.0
 10
47.739941
 20
30.182083
 30
0.0
 10
48.058313
 20
29.547171
 30
0.0
 10
48.245847
 20
28.862914
 30
0.0
 10
48.301817
 20
28.132619
 30
0.0
 10
48.164194
 20
27.071795
 30
0.0
 10
47.788441
 20
26.143923
 30
0.0
 10
47.177076
 20
25.353502
 30
0.0
 10
46.332614
 20
24.705030
 30
0.0
 10
45.246631
 20
24.255569
 30
0.0
 10
44.107732
 20
24.151787
 30
0.0
 10
42.985369
 20
24.385744
 30
0.0
 10
41.948997
 20
24.949505
 30
0.0
 10
41.151895
 20
25.736773
 30
0.0
 10
40.613026
 20
26.717980
 30
0.0
 10
40.571399
 20
26.831928
 30
0.0
 10
40.538590
 20
26.866853
 30
0.0
 10
40.371022
 20
26.866853
 30
0.0
 10
33.539126
 20
26.871430
 30
0.0
 10
32.759752
 20
26.770668
 30
0.0
 10
32.035940
 20
26.478084
 30
0.0
 10
31.194874
 20
25.918754
 30
0.0
 10
30.458317
 20
25.235601
 30
0.0
 10
25.795301
 20
20.323524
 30
0.0
 10
23.202739
 20
17.598668
 30
0.0
 10
23.053866
 20
17.435684
 30
0.0
 10
64.399419
 20
17.435684
 30
0.0
 10
64.399419
 20
20.747209
 30
0.0
 10
64.427642
 20
20.760624
 30
0.0
 10
64.441401
 20
20.765572
 30
0.0
 10
64.510899
 20
20.732763
 30
0.0
 10
72.460040
 20
16.113845
 30
0.0
 10
64.413178
 20
11.448005
 30
0.0
 10
64.408600
 20
13.142397
 30
0.0
 10
64.408600
 20
14.817738
 30
0.0
 10
33.087932
 20
14.817738
 30
0.0
 10
33.171540
 20
14.710495
 30
0.0
 10
35.349590
 20
12.416380
 30
0.0
 10
39.030825
 20
8.535120
 30
0.0
 10
40.748148
 20
6.750063
 30
0.0
 10
41.513633
 20
6.085783
 30
0.0
 10
42.391034
 20
5.574961
 30
0.0
 10
42.957155
 20
5.380228
 30
0.0
 10
43.554497
 20
5.314611
 30
0.0
 10
50.111927
 20
5.316728
 30
0.0
 10
50.284084
 20
5.316728
 30
0.0
 10
50.284084
 20
6.221955
 30
0.0
 10
50.284084
 20
7.110955
 30
0.0
 10
50.284084
 20
8.004543
 30
0.0
 10
58.307309
 20
8.009120
 30
0.0
 10
58.307309
 20
0.025053
 30
0.0
 10
50.288669
 20
0.020476
 30
0.0
 10
50.288669
 20
2.794368
 30
0.0
 10
50.074534
 20
2.794368
 30
0.0
 10
43.591538
 20
2.791987
 30
0.0
 10
42.764097
 20
2.848564
 30
0.0
 10
41.953590
 20
3.033993
 30
0.0
 10
40.999503
 20
3.440482
 30
0.0
 10
40.115265
 20
3.988258
 30
0.0
 10
38.565513
 20
5.363385
 30
0.0
 10
32.310763
 20
11.960328
 30
0.0
 10
30.788880
 20
13.552062
 30
0.0
 10
30.187967
 20
14.033648
 30
0.0
 10
29.499475
 20
14.389558
 30
0.0
 10
28.372263
 20
14.726459
 30
0.0
 10
27.195838
 20
14.829470
 30
0.0
 10
13.420217
 20
14.827089
 30
0.0
 10
13.267113
 20
14.827089
 30
0.0
  0
ENDSEC
  0
SECTION
  2
OBJECTS
  0
DICTIONARY
  5
C
330
0
100
AcDbDictionary
  3
ACAD_GROUP
350
D
  3
ACAD_MLINESTYLE
350
17
  0
DICTIONARY
  5
D
330
C
100
AcDbDictionary
  0
DICTIONARY
  5
1A
330
C
100
AcDbDictionary
  0
DICTIONARY
  5
17
330
C
100
AcDbDictionary
  3
STANDARD
350
18
  0
DICTIONARY
  5
19
330
C
100
AcDbDictionary
  0
ENDSEC
  0
EOF
